<?xml version="1.0" encoding="utf-8"?>
<!-- Generator: Adobe Illustrator 16.0.0, SVG Export Plug-In . SVG Version: 6.00 Build 0)  -->
<!DOCTYPE svg PUBLIC "-//W3C//DTD SVG 1.1//EN" "http://www.w3.org/Graphics/SVG/1.1/DTD/svg11.dtd">
<svg version="1.1" xmlns="http://www.w3.org/2000/svg" xmlns:xlink="http://www.w3.org/1999/xlink" x="0px" y="0px" width="1000px"
	 height="1000px" viewBox="0 0 1000/ 1000" enable-background="new 0 0 1000 1000" xml:space="preserve">
<g id="레이어_2">
	<path fill="rgba(10, 61, 98, 0.9)" d="M129,566c0,0,3-182,184-297c0,0,203-134,425,32c0,0,131,100,135,265v214c0,0,0,17-22,17h-39c0,0-19,2-20-25
		V585c0,0,2-158-147-247c0,0-203-120-368,66c0,0-55,61-67,164l-1,208c0,0,1,21.066-18,21.033h-43c0,0-18,2.967-19-22.033V566z"/>
</g>
<g id="레이어_3">
	<path fill="rgba(10, 61, 98, 0.75)" d="M252,774c0,0,1,23.285,20,23.143h45c0,0,18,0,18-28.143V583c0,0,2-31,8-48c0,0,38-109,158-112
		c0,0,114-5,157,117c0,0,8,29,8,52v178c0,0,1,26.285,19,27.143h46c0,0,18,0.447,18-33.143V592c0,0,0-38-7-62c0,0-33-188.542-242-188
		c0,0-150-12-232,166.067c0,0-15,32.933-16,74.933V774z"/>
</g>
<g id="레이어_4">
	<path fill="rgba(10, 61, 98, 0.9)" d="M376,612c0,0-2-37,12-68c0,0,31-77,113-77c0,0,74-4,109,66c0,0,16,28,15,60l0.045,182
		c0,0,0,22.322-21.045,22.144l-46-0.001c0,0-15,0.18-16-24.143V597c0,0-0.571-18.604-6-27.513c0,0-8-20.487-35-20.487
		c0,0-30-0.025-38,20.487c0,0-4,12.513-4,31.513l-1,173c0,0,0,23.322-16,23.143l-48,0.18c0,0-18.099,0-18.099-16.322L376,612z"/>
</g>
</svg>
