<?xml version="1.0" encoding="utf-8"?>
<!-- Generator: Adobe Illustrator 16.0.0, SVG Export Plug-In . SVG Version: 6.00 Build 0)  -->
<!DOCTYPE svg PUBLIC "-//W3C//DTD SVG 1.1//EN" "http://www.w3.org/Graphics/SVG/1.1/DTD/svg11.dtd">
<svg version="1.1" id="레이어_1" xmlns="http://www.w3.org/2000/svg" xmlns:xlink="http://www.w3.org/1999/xlink" x="0px"
	 y="0px" width="2000px" height="1500px" viewBox="0 0 2000 1500" enable-background="new 0 0 2000 1500" xml:space="preserve">
<g id="레이어_6">
	<path fill="rgba(10, 61, 98, 0.9)" d="M678.089,1433.84V977.934c0,0-0.603-323.934,320.206-332.503c0,0,313.95-10.284,319.092,339.359v449.05
		c0,0,0.112,61.707-54.843,61.732H1161.42c0,0-53.136,3.399-54.849-65.159l1.718-450.765c0,0-4.032-125.115-109.994-123.402
		c0,0-104.25-6.857-107.679,121.688v452.479c0,0,3.429,63.529-63.415,65.188h-94.27
		C732.938,1495.598,678.089,1493.827,678.089,1433.84z"/>
</g>
<g id="레이어_7">
	<path fill="rgba(10, 61, 98, 0.9)" d="M39.65,1335.289V980.505c0,0-5.142-293.083,151.684-521.894c0,0,267.372-444.767,804.694-452.48
		c0,0,519.587-17.996,804.694,437.054c0,0,143.111,183.391,156.824,557.887v431.912c0,0,5.568,62.627-56.56,62.614l-102.836-0.028
		c0,0-50.133-0.886-50.133-65.158V990.788c0,0,14.649-186.39-108.365-407.489c0,0-216.854-363.784-611.489-367.64
		c0,0-366.354-29.565-613.162,278.943c0,0-169.68,174.822-167.109,511.61l1.285,437.056c0,0,0,50.694-52.703,52.342H88.497
		c0,0-47.604-2.21-48.867-52.342L39.65,1335.289z"/>
</g>
<g id="레이어_3">
	<path fill="rgba(10, 61, 98, 0.75)" d="M359.299,1061.918c0,0-10.284-200.531,82.269-394.205c0,0,155.969-346.217,574.169-339.36
		c0,0,370.205-12.098,557.028,366.733c0,0,63.414,102.889,66.843,310.273v423.342c0,0,3.318,63.417-49.707,66.849h-121.686
		c0,0-44.138-1.825-42.852-68.563v-426.771c0,0,15.427-162.826-102.836-303.366c0,0-94.271-147.398-326.505-157.682
		c0,0-244.236-10.283-376.207,224.526c0,0-49.706,80.556-49.706,298.225l1.717,366.78c0,0,2.998,66.899-53.135,66.849H407.29
		c0,0-49.208,3.425-50.313-70.275L359.299,1061.918z"/>
</g>
</svg>
